<svg width="150" height="42" viewBox="0 0 150 42" fill="none" xmlns="http://www.w3.org/2000/svg">
<path d="M43.7525 10.0885C43.7525 8.62841 44.117 7.2805 44.8459 6.04479C45.5748 4.81068 46.5547 3.8282 47.7855 3.09734C49.0164 2.36649 50.3607 2.00107 51.8185 2.00107C53.4106 2.00107 54.8413 2.43862 56.1105 3.31051C57.3797 4.184 58.3452 5.34279 59.0054 6.78846L55.7844 7.71485C55.3784 6.96156 54.8381 6.36373 54.1619 5.91817C53.4858 5.47421 52.7041 5.24502 51.8185 5.22899C50.933 5.22899 50.1321 5.44376 49.4192 5.8733C48.7063 6.30283 48.1468 6.88943 47.7408 7.63471C47.3347 8.37999 47.1317 9.19738 47.1317 10.0853C47.1317 10.9732 47.3347 11.7874 47.7408 12.5247C48.1468 13.2619 48.7063 13.8469 49.4192 14.2749C50.1321 14.7044 50.933 14.9192 51.8185 14.9192C52.7041 14.9192 53.4778 14.7124 54.1396 14.2973C54.7997 13.8838 55.3256 13.3004 55.7173 12.5471L58.9846 13.4286C58.3388 14.8599 57.3813 16.0042 56.1121 16.8617C54.8429 17.7208 53.4122 18.1487 51.8201 18.1487C50.3639 18.1487 49.0196 17.7881 47.7871 17.0653C46.5547 16.3424 45.5748 15.3631 44.8475 14.129C44.1186 12.8949 43.7541 11.547 43.7541 10.0853L43.7525 10.0885Z" fill="white"/>
<path d="M60.3561 10.0885C60.3561 8.62841 60.7206 7.2805 61.4495 6.04479C62.1784 4.81068 63.1583 3.82819 64.3892 3.09734C65.62 2.36649 66.9643 2.00107 68.4222 2.00107C69.88 2.00107 71.2227 2.36649 72.4552 3.09734C73.686 3.82819 74.6659 4.81068 75.3948 6.04479C76.1237 7.2789 76.4882 8.62841 76.4882 10.0885C76.4882 11.5486 76.1285 12.8965 75.4076 14.1322C74.6867 15.3679 73.7068 16.3456 72.468 17.0685C71.2291 17.7913 69.88 18.1519 68.4238 18.1519C66.9675 18.1519 65.6232 17.7913 64.3908 17.0685C63.1583 16.3456 62.1784 15.3663 61.4511 14.1322C60.7222 12.8981 60.3577 11.5502 60.3577 10.0885H60.3561ZM63.7354 10.0885C63.7354 10.9764 63.9384 11.797 64.3444 12.5503C64.7504 13.3036 65.3099 13.8982 66.0228 14.3342C66.7358 14.7717 67.5366 14.9897 68.4222 14.9897C69.3077 14.9897 70.1086 14.7717 70.8215 14.3342C71.5344 13.8982 72.0939 13.3036 72.4999 12.5503C72.906 11.797 73.109 10.9764 73.109 10.0885C73.109 9.20059 72.906 8.37998 72.4999 7.6267C72.0939 6.87341 71.5344 6.27558 70.8215 5.83002C70.1086 5.38606 69.3077 5.16328 68.4222 5.16328C67.5366 5.16328 66.7549 5.38606 66.034 5.83002C65.3131 6.27398 64.7504 6.87341 64.3444 7.6267C63.9384 8.37998 63.7354 9.20059 63.7354 10.0885Z" fill="white"/>
<path d="M78.4032 17.9724V2.15976H81.6705L87.2797 13.1386L92.7993 2.15976H96.0666V17.9724H92.7993V8.71017L88.1812 17.9724H86.2662L81.6705 8.71017V17.9724H78.4032Z" fill="white"/>
<path d="M98.5443 17.9724V2.15976H101.812L107.421 13.1386L112.94 2.15976H116.208V17.9724H112.94V8.71017L108.322 17.9724H106.407L101.812 8.71017V17.9724H98.5443Z" fill="white"/>
<path d="M118.121 10.0885C118.121 8.62841 118.486 7.2805 119.214 6.04479C119.943 4.81068 120.923 3.82819 122.154 3.09734C123.385 2.36649 124.729 2.00107 126.187 2.00107C127.645 2.00107 128.988 2.36649 130.22 3.09734C131.451 3.82819 132.431 4.81068 133.16 6.04479C133.889 7.2789 134.253 8.62841 134.253 10.0885C134.253 11.5486 133.893 12.8965 133.173 14.1322C132.452 15.3679 131.472 16.3456 130.233 17.0685C128.994 17.7913 127.645 18.1519 126.189 18.1519C124.732 18.1519 123.387 17.7913 122.156 17.0685C120.923 16.3456 119.943 15.3663 119.216 14.1322C118.487 12.8981 118.123 11.5502 118.123 10.0885H118.121ZM121.5 10.0885C121.5 10.9764 121.703 11.797 122.109 12.5503C122.515 13.3036 123.075 13.8982 123.788 14.3342C124.501 14.7717 125.3 14.9897 126.187 14.9897C127.074 14.9897 127.874 14.7717 128.586 14.3342C129.299 13.8982 129.859 13.3036 130.265 12.5503C130.671 11.797 130.872 10.9764 130.872 10.0885C130.872 9.20059 130.669 8.37998 130.265 7.6267C129.859 6.87341 129.299 6.27558 128.586 5.83002C127.874 5.38606 127.073 5.16328 126.187 5.16328C125.302 5.16328 124.52 5.38606 123.799 5.83002C123.078 6.27398 122.515 6.87341 122.109 7.6267C121.703 8.37998 121.5 9.20059 121.5 10.0885Z" fill="white"/>
<path d="M136.235 17.9724V2.15976H139.547L146.734 12.7988V2.15976H150.002V17.9724H146.712L139.503 7.31098V17.9724H136.235Z" fill="white"/>
<path d="M46.3884 25.9012C47.9198 24.3353 49.79 23.5516 51.9976 23.5516C53.6041 23.5516 55.0507 24.0068 56.3343 24.9187C57.6179 25.8307 58.569 27.0311 59.1844 28.5217L57.9232 28.8823C57.4277 27.6482 56.654 26.6577 55.6022 25.9124C54.5504 25.1671 53.3499 24.7873 51.9976 24.7713H51.9304C50.0682 24.7713 48.5096 25.43 47.2548 26.7474C46 28.0649 45.3734 29.6949 45.3734 31.6374C45.3734 33.5799 46 35.1458 47.2548 36.4713C48.508 37.7968 50.089 38.4587 51.9976 38.4587C53.3643 38.4587 54.5696 38.0901 55.6134 37.3512C56.6572 36.6139 57.4277 35.6266 57.9232 34.3925L59.162 34.7307C58.5914 36.2213 57.6643 37.4233 56.3791 38.3337C55.0955 39.2456 53.6344 39.7008 51.9976 39.7008C49.7597 39.7008 47.8814 38.9139 46.3645 37.34C44.8475 35.7661 44.0882 33.8652 44.0882 31.6358C44.0882 29.4064 44.8539 27.4799 46.3868 25.898L46.3884 25.9012Z" fill="white"/>
<path d="M61.5278 39.6592V23.8465H68.1296C69.5859 23.8465 70.7384 24.3097 71.5872 25.2361C72.436 26.1625 72.8596 27.2876 72.8596 28.6131C72.8596 29.9385 72.4872 30.9242 71.7439 31.7528C71.0006 32.5814 70.0654 33.0783 68.9385 33.2434L73.0163 39.6592H71.5968L67.5638 33.3572H62.7875V39.6592H61.5262H61.5278ZM67.7908 32.2272C68.9017 32.2272 69.8177 31.9003 70.5386 31.2448C71.2595 30.5892 71.6208 29.7125 71.6208 28.6131C71.6208 27.5889 71.3171 26.7346 70.708 26.0487C70.1006 25.3643 69.239 25.0213 68.1281 25.0213H62.7891V32.2272H67.7908Z" fill="white"/>
<path d="M74.4821 39.6592L81.1511 23.8465H82.481L89.1276 39.6592H87.7752L86.0856 35.593H77.5241L75.8121 39.6592H74.4837H74.4821ZM85.6348 34.4406L81.8048 25.3819L77.9748 34.4406H85.6348Z" fill="white"/>
<path d="M88.4514 23.8465H89.7813L93.4307 37.7615L97.8681 23.8465H99.1294L103.568 37.7615L107.24 23.8465H108.568L104.31 39.6592H102.935L98.5203 25.9028L94.0813 39.6592H92.6842L88.4482 23.8465H88.4514Z" fill="white"/>
<path d="M0 29.3198V12.7651C0 11.5037 0.837614 10.0757 2.01091 9.40415L17.0144 0.074585V9.23426L8.29781 14.5281C7.4602 15.033 6.95667 15.9562 6.95667 16.7976V26.0422C6.95667 26.8821 7.37548 27.7235 7.96213 28.0585L17.0144 33.4373V41.9254L1.50898 32.3458C0.67137 31.7576 0 30.4963 0 29.3198Z" fill="white"/>
<path d="M19.5289 41.9254V33.4373L28.5812 28.0585C29.1678 27.7219 29.5866 26.8821 29.5866 26.0422V16.7976C29.5866 15.9578 29.0831 15.033 28.2455 14.5281L19.5289 9.23426V0.074585L34.5324 9.40255C35.7057 10.0741 36.5433 11.5037 36.5433 12.7635V29.3182C36.5433 30.4946 35.8735 31.756 35.0343 32.3442L19.5289 41.9238V41.9254Z" fill="white"/>
<path d="M112.023 38.5308H120.262V39.6607H110.699V23.8448H112.023V38.5308Z" fill="white"/>
</svg>
