<svg width="279" height="41" viewBox="0 0 279 41" fill="none" xmlns="http://www.w3.org/2000/svg">
<path d="M14.875 1.39C18.945 1.39 22.5017 2.19666 25.545 3.81C28.5883 5.42333 30.935 7.69667 32.585 10.63C34.2717 13.5267 35.115 16.8817 35.115 20.695C35.115 24.4717 34.2717 27.8267 32.585 30.76C30.935 33.6933 28.57 35.9667 25.49 37.58C22.4467 39.1933 18.9083 40 14.875 40H0.41V1.39H14.875ZM14.27 31.86C17.8267 31.86 20.595 30.8883 22.575 28.945C24.555 27.0017 25.545 24.2517 25.545 20.695C25.545 17.1383 24.555 14.37 22.575 12.39C20.595 10.41 17.8267 9.42 14.27 9.42H9.815V31.86H14.27ZM64.4059 33.18H49.9959L47.6859 40H37.8409L51.8109 1.39H62.7009L76.6709 40H66.7159L64.4059 33.18ZM61.9859 25.92L57.2009 11.785L52.4709 25.92H61.9859ZM115.463 40H106.058L90.3277 16.185V40H80.9227V1.39H90.3277L106.058 25.315V1.39H115.463V40ZM146.315 33.18H131.905L129.595 40H119.75L133.72 1.39H144.61L158.58 40H148.625L146.315 33.18ZM143.895 25.92L139.11 11.785L134.38 25.92H143.895ZM195.942 1.39L182.577 27.24V40H173.172V27.24L159.807 1.39H170.477L177.957 17.56L185.382 1.39H195.942ZM223.766 33.18H209.356L207.046 40H197.201L211.171 1.39H222.061L236.031 40H226.076L223.766 33.18ZM221.346 25.92L216.561 11.785L211.831 25.92H221.346ZM258.543 40.385C254.913 40.385 251.576 39.5417 248.533 37.855C245.526 36.1683 243.125 33.8217 241.328 30.815C239.568 27.7717 238.688 24.3617 238.688 20.585C238.688 16.8083 239.568 13.4167 241.328 10.41C243.125 7.40333 245.526 5.05667 248.533 3.37C251.576 1.68333 254.913 0.839999 258.543 0.839999C262.173 0.839999 265.491 1.68333 268.498 3.37C271.541 5.05667 273.925 7.40333 275.648 10.41C277.408 13.4167 278.288 16.8083 278.288 20.585C278.288 24.3617 277.408 27.7717 275.648 30.815C273.888 33.8217 271.505 36.1683 268.498 37.855C265.491 39.5417 262.173 40.385 258.543 40.385ZM258.543 31.805C261.623 31.805 264.08 30.7783 265.913 28.725C267.783 26.6717 268.718 23.9583 268.718 20.585C268.718 17.175 267.783 14.4617 265.913 12.445C264.08 10.3917 261.623 9.365 258.543 9.365C255.426 9.365 252.933 10.3733 251.063 12.39C249.23 14.4067 248.313 17.1383 248.313 20.585C248.313 23.995 249.23 26.7267 251.063 28.78C252.933 30.7967 255.426 31.805 258.543 31.805Z" fill="#F9F8FF"/>
</svg>
