<svg width="116" height="34" viewBox="0 0 116 34" fill="none" xmlns="http://www.w3.org/2000/svg">
<g clip-path="url(#clip0_312_78)">
<path d="M107.862 13.0216H116C115.712 11.1996 114.931 9.419 113.945 7.89321C110.904 3.14673 106.054 0.518555 100.547 0.518555C91.7107 0.518555 84.6007 7.55457 84.6007 16.7513C84.6007 25.9484 91.7929 33.0688 100.629 33.0688C107.986 33.0688 114.233 28.1524 116 20.7357H107.862C106.506 23.8293 103.958 26.0332 100.547 26.0332C95.574 26.0332 92.3683 21.541 92.3683 16.7094C92.3683 11.8773 95.574 7.55457 100.506 7.55457C103.917 7.55457 106.671 9.80045 107.862 13.0216ZM81.8064 16.2855C81.8064 15.7341 81.8064 15.1836 81.7653 14.6322H60.2317V21.032H72.8058C71.8605 24.5078 68.8603 26.0756 65.5313 26.0756C60.3529 26.0756 57.1883 21.7949 57.1883 16.667C57.1883 11.7077 60.5173 7.55457 65.4902 7.55457C68.3671 7.55457 70.792 9.03798 72.1893 11.6234H80.9022C79.0528 4.92639 72.2715 0.518555 65.6957 0.518555C56.7773 0.518555 49.4207 7.25747 49.4207 16.667C49.4207 25.9484 56.6129 33.1112 65.5724 33.1112C74.9018 33.1112 81.8064 25.9061 81.8064 16.2855ZM8.67386 21.032H46.4846V14.6322H7.98546C8.74003 10.9097 11.4982 7.55457 15.9052 7.55457C18.2478 7.55457 19.8506 8.2327 20.9603 8.95278V1.4514C19.3574 0.815663 17.8779 0.518555 15.9463 0.518555C6.08259 0.518555 0 8.31704 0 16.7513C0 25.2279 6.28809 33.0688 15.6175 33.0688C17.3847 33.0688 19.7684 32.645 20.9603 32.1364V24.5498C19.5629 25.4822 18.0423 26.0332 15.9463 26.0332C12.494 26.0332 9.94504 23.8975 8.67386 21.032Z" fill="white"/>
</g>
<defs>
<clipPath id="clip0_312_78">
<rect width="116" height="34" fill="white"/>
</clipPath>
</defs>
</svg>
