<svg width="100" height="13" viewBox="0 0 100 13" fill="none" xmlns="http://www.w3.org/2000/svg">
<g clip-path="url(#clip0_8223_26749)">
<mask id="mask0_8223_26749" style="mask-type:luminance" maskUnits="userSpaceOnUse" x="-17" y="-19" width="134" height="51">
<path d="M116.438 -18.5H-16.4384V31.5H116.438V-18.5Z" fill="white"/>
</mask>
<g mask="url(#mask0_8223_26749)">
<path d="M7.47946 9.83333C6.01781 6.65 4.63922 3.63333 3.26062 0.633333H0.071579V12.3667H2.08134V2.88333C2.13117 2.86667 2.181 2.86667 2.21422 2.85C3.67586 6.03333 5.1375 9.21667 6.58254 12.3667H8.30994C9.78819 9.15 11.2498 5.96667 12.7115 2.78333C12.7613 2.8 12.8111 2.8 12.861 2.81667V12.3667H14.8375V0.616665H11.6983C10.3031 3.65 8.92449 6.68333 7.47946 9.83333Z" fill="black"/>
</g>
<mask id="mask1_8223_26749" style="mask-type:luminance" maskUnits="userSpaceOnUse" x="-17" y="-19" width="134" height="51">
<path d="M116.438 -18.5H-16.4384V31.5H116.438V-18.5Z" fill="white"/>
</mask>
<g mask="url(#mask1_8223_26749)">
<path d="M47.1265 10.55V7.23333H55.4313L55.3981 5.38333H47.1431V2.43333H56.3615V0.65H45.0836V12.3667H56.3615L56.3449 10.55H47.1265Z" fill="black"/>
</g>
<mask id="mask2_8223_26749" style="mask-type:luminance" maskUnits="userSpaceOnUse" x="-17" y="-19" width="134" height="51">
<path d="M116.438 -18.5H-16.4384V31.5H116.438V-18.5Z" fill="white"/>
</mask>
<g mask="url(#mask2_8223_26749)">
<path d="M68.4699 6C67.4567 5.71667 66.4269 5.6 65.3971 5.46667C64.3175 5.33333 63.2378 5.23333 62.1914 4.93333C61.743 4.8 61.361 4.56667 61.2945 4.05C61.2281 3.51667 61.4606 3.15 61.8925 2.86667C62.2745 2.61667 62.6897 2.45 63.1382 2.38333C65.4137 2.05 67.5231 2.28333 69.1675 4.18333C69.6491 3.78333 70.1142 3.38333 70.5959 2.98333C70.4132 2.53333 70.0976 2.25 69.7654 2C68.6858 1.13333 67.4235 0.683332 66.0781 0.533332C64.2842 0.316666 62.4904 0.366666 60.8959 1.4C59.7664 2.13333 59.1685 3.16667 59.3512 4.53333C59.5339 5.9 60.5305 6.41667 61.6932 6.75C62.9721 7.11667 64.2842 7.21667 65.5964 7.38333C66.4435 7.5 67.2906 7.53333 68.0878 7.86666C68.9515 8.23333 69.1176 9.18333 68.4533 9.83333C68.1211 10.15 67.7058 10.3333 67.274 10.4667C66.211 10.8 65.1313 10.8167 64.0517 10.65C62.3741 10.4 61.0122 9.61667 59.9824 8.18333C59.4675 8.66667 58.9858 9.11666 58.5041 9.56666C59.0024 10.3833 59.6668 10.9333 60.4308 11.3667C62.042 12.2667 63.7693 12.6 65.5964 12.5333C66.9418 12.4833 68.2207 12.25 69.3502 11.4833C70.4962 10.7167 71.0277 9.63333 70.845 8.25C70.6457 6.9 69.6491 6.33333 68.4699 6Z" fill="black"/>
</g>
<mask id="mask3_8223_26749" style="mask-type:luminance" maskUnits="userSpaceOnUse" x="-17" y="-19" width="134" height="51">
<path d="M116.438 -18.5H-16.4384V31.5H116.438V-18.5Z" fill="white"/>
</mask>
<g mask="url(#mask3_8223_26749)">
<path d="M22.9264 0.616665C20.9498 4.51666 18.9733 8.41667 16.9635 12.3833H19.1892C19.6875 11.4 20.1858 10.45 20.6675 9.48333H27.5106C28.0089 10.4833 28.5072 11.45 28.9723 12.3667H31.1979C29.1882 8.4 27.2283 4.51666 25.2517 0.616665H22.9264ZM21.6308 7.56666C22.4447 5.95 23.242 4.36666 24.089 2.68333C24.9361 4.36666 25.7334 5.93333 26.5639 7.56666H21.6308Z" fill="black"/>
</g>
<mask id="mask4_8223_26749" style="mask-type:luminance" maskUnits="userSpaceOnUse" x="-17" y="-19" width="134" height="51">
<path d="M116.438 -18.5H-16.4384V31.5H116.438V-18.5Z" fill="white"/>
</mask>
<g mask="url(#mask4_8223_26749)">
<path d="M93.9822 0.616665H91.6568C89.6803 4.51666 87.7038 8.41667 85.694 12.3667H87.9197C88.418 11.3833 88.9163 10.4167 89.3979 9.45H96.2411C96.7394 10.4333 97.2377 11.4 97.7193 12.35H99.9284C97.9186 8.4 95.9421 4.5 93.9822 0.616665ZM90.3447 7.6C91.1752 5.95 91.9724 4.36667 92.8195 2.68333C93.6666 4.36667 94.4639 5.93333 95.2943 7.6H90.3447Z" fill="black"/>
</g>
<mask id="mask5_8223_26749" style="mask-type:luminance" maskUnits="userSpaceOnUse" x="-17" y="-19" width="134" height="51">
<path d="M116.438 -18.5H-16.4384V31.5H116.438V-18.5Z" fill="white"/>
</mask>
<g mask="url(#mask5_8223_26749)">
<path d="M35.749 10.4333C34.0382 7.06667 32.3772 3.85 30.7495 0.633335H28.5072C30.5336 4.6 32.5101 8.48333 34.5032 12.3667H36.9615C38.9546 8.46667 40.9478 4.58333 42.9741 0.633335H40.7485C39.1207 3.85 37.4598 7.06667 35.749 10.4333Z" fill="black"/>
</g>
<mask id="mask6_8223_26749" style="mask-type:luminance" maskUnits="userSpaceOnUse" x="-17" y="-19" width="134" height="51">
<path d="M116.438 -18.5H-16.4384V31.5H116.438V-18.5Z" fill="white"/>
</mask>
<g mask="url(#mask6_8223_26749)">
<path d="M73.0375 0.65V2.46667H78.336V12.3667H80.4122V2.45H85.694L85.6774 0.65H73.0375Z" fill="black"/>
</g>
</g>
<defs>
<clipPath id="clip0_8223_26749">
<rect width="100" height="11.6438" fill="white" transform="translate(0 0.678082)"/>
</clipPath>
</defs>
</svg>
