<svg width="1022" height="707" viewBox="0 0 1022 707" fill="none" xmlns="http://www.w3.org/2000/svg">
<path d="M290.401 444.685L732.059 366.809C862.634 343.785 987.15 430.972 1010.17 561.546C1011.5 569.069 1006.48 576.242 998.955 577.568L557.297 655.444C426.722 678.468 302.206 591.281 279.182 460.707C277.856 453.185 282.879 446.012 290.401 444.685Z" fill="#1F1F1F" stroke="#1F1F1F" stroke-width="16"/>
<path d="M22.8876 128.832L464.546 50.956C595.12 27.9322 719.637 115.119 742.661 245.694C743.988 253.216 738.964 260.389 731.442 261.715L289.783 339.592C159.209 362.615 34.693 275.428 11.6692 144.854C10.3431 137.332 15.3656 130.159 22.8876 128.832Z" fill="#1F1F1F" stroke="#1F1F1F" stroke-width="16"/>
</svg>
